<svg aria-hidden="true" style="position: absolute; width: 0; height: 0; overflow: hidden;" version="1.1" xmlns="http://www.w3.org/2000/svg" xmlns:xlink="http://www.w3.org/1999/xlink">
<defs>
<symbol id="icon-arrow-up" viewBox="0 0 24 24">
<path d="M5.707 12.707l5.293-5.293v11.586c0 0.552 0.448 1 1 1s1-0.448 1-1v-11.586l5.293 5.293c0.391 0.391 1.024 0.391 1.414 0s0.391-1.024 0-1.414l-7-7c-0.092-0.092-0.202-0.166-0.324-0.217s-0.253-0.076-0.383-0.076c-0.256 0-0.512 0.098-0.707 0.293l-7 7c-0.391 0.391-0.391 1.024 0 1.414s1.024 0.391 1.414 0z"></path>
</symbol>
<symbol id="icon-phone" viewBox="0 0 24 24">
<path d="M23 16.92c0.016-0.714-0.236-1.404-0.673-1.943-0.46-0.566-1.129-0.967-1.925-1.080-0.8-0.098-1.695-0.314-2.586-0.646-0.433-0.159-0.893-0.218-1.344-0.174-0.663 0.064-1.307 0.349-1.819 0.855l-0.72 0.72c-1.77-1.117-3.36-2.667-4.583-4.589l0.726-0.726c0.322-0.33 0.563-0.726 0.707-1.156 0.212-0.632 0.214-1.336-0.039-2.011-0.289-0.753-0.518-1.644-0.644-2.595-0.104-0.714-0.456-1.345-0.963-1.804-0.539-0.486-1.256-0.779-2.027-0.771h-2.996c-0.088 0-0.182 0.004-0.273 0.012-0.824 0.075-1.542 0.478-2.033 1.066s-0.758 1.367-0.683 2.199c0.3 3.076 1.365 6.243 3.216 9.102 1.502 2.413 3.648 4.623 6.298 6.306 2.568 1.697 5.684 2.862 9.086 3.231 0.092 0.009 0.191 0.013 0.288 0.013 0.828-0.003 1.578-0.343 2.118-0.887s0.873-1.297 0.87-2.121zM21 16.92v3c0.001 0.28-0.109 0.53-0.29 0.712s-0.429 0.295-0.706 0.296c-3.149-0.336-5.961-1.391-8.263-2.912-2.428-1.543-4.359-3.537-5.702-5.694-1.697-2.62-2.655-5.481-2.924-8.238-0.024-0.268 0.064-0.526 0.229-0.724s0.403-0.33 0.678-0.355l3.088-0.005c0.271-0.003 0.507 0.094 0.687 0.256 0.17 0.154 0.288 0.366 0.323 0.608 0.142 1.072 0.408 2.117 0.757 3.025 0.081 0.216 0.080 0.447 0.010 0.658-0.049 0.145-0.131 0.281-0.242 0.395l-1.262 1.261c-0.324 0.324-0.379 0.814-0.162 1.201 1.584 2.785 3.839 4.957 6.381 6.378 0.397 0.222 0.882 0.144 1.195-0.166l1.27-1.27c0.166-0.164 0.377-0.257 0.598-0.279 0.152-0.015 0.31 0.005 0.459 0.060 1.022 0.381 2.070 0.636 3.034 0.754 0.241 0.034 0.462 0.166 0.615 0.355 0.147 0.181 0.231 0.412 0.226 0.682z"></path>
</symbol>
<symbol id="icon-close" viewBox="0 0 24 24">
<path d="M18.707 5.293c0.39 0.391 0.39 1.024 0 1.414l-12 12c-0.391 0.39-1.024 0.39-1.414 0s-0.391-1.024 0-1.414l12-12c0.39-0.391 1.024-0.391 1.414 0z"></path>
<path d="M5.293 5.293c0.391-0.391 1.024-0.391 1.414 0l12 12c0.39 0.39 0.39 1.024 0 1.414s-1.024 0.39-1.414 0l-12-12c-0.391-0.391-0.391-1.024 0-1.414z"></path>
</symbol>
<symbol id="icon-cosmetic" viewBox="0 0 24 24">
<path d="M1.342 2.649l1.496 17.204v1.484c0.001 1.035 0.84 1.874 1.875 1.875h3.75c1.035-0.001 1.874-0.84 1.875-1.875v-1.484l1.496-17.204 0.368-1.47c0.028-0.112 0.003-0.231-0.068-0.322s-0.18-0.144-0.296-0.144h-10.5c-0.116 0-0.224 0.053-0.296 0.144s-0.096 0.21-0.068 0.322l0.368 1.47zM9.978 15.337h-6.78l-0.195-2.25h7.171l-0.195 2.25zM9.912 16.087l-0.294 3.375h-6.062l-0.294-3.375h6.65zM5.275 20.212h2.625v0.375c0 0.207-0.168 0.375-0.375 0.375h-1.875c-0.207 0-0.375-0.168-0.375-0.375v-0.375zM9.587 21.337c0 0.621-0.504 1.125-1.125 1.125h-3.75c-0.621 0-1.125-0.504-1.125-1.125v-1.125h0.937v0.375c0 0.621 0.504 1.125 1.125 1.125h1.875c0.621 0 1.125-0.504 1.125-1.125v-0.375h0.938v1.125zM10.238 12.337h-7.301l-0.815-9.375h8.932l-0.815 9.375zM11.357 1.462l-0.188 0.75h-9.164l-0.188-0.75h9.539z"></path>
<path d="M15.213 23.212h5.25c0.621 0 1.125-0.504 1.125-1.125v-14.25c-0.001-0.745-0.443-1.418-1.125-1.716v-1.284c0-0.207-0.168-0.375-0.375-0.375h-1.125v-1.5h3.75c0.152 0 0.288-0.091 0.346-0.231s0.026-0.301-0.081-0.409l-0.75-0.75c-0.057-0.057-0.132-0.094-0.212-0.106l-5.25-0.75c-0.018-0.002-0.036-0.004-0.053-0.004h-1.5c-0.207 0-0.375 0.168-0.375 0.375v1.5c0 0.207 0.168 0.375 0.375 0.375h1.5v1.5h-1.125c-0.207 0-0.375 0.168-0.375 0.375v1.284c-0.682 0.298-1.124 0.971-1.125 1.716v14.25c0 0.621 0.504 1.125 1.125 1.125v0zM20.838 9.712h-6v-0.75h6v0.75zM20.838 17.962h-6v-7.5h6v7.5zM20.463 22.462h-5.25c-0.207 0-0.375-0.168-0.375-0.375v-3.375h6v3.375c0 0.207-0.168 0.375-0.375 0.375zM15.588 1.462h1.098l5.1 0.729 0.021 0.021h-6.22v-0.75zM17.463 2.963h0.75v1.5h-0.75v-1.5zM15.963 5.213h3.75v0.75h-3.75v-0.75zM15.963 6.712h3.75c0.621 0 1.125 0.504 1.125 1.125v0.375h-6v-0.375c0-0.621 0.504-1.125 1.125-1.125z"></path>
<path d="M4.338 14.587h4.5c0.207 0 0.375-0.168 0.375-0.375s-0.168-0.375-0.375-0.375h-4.5c-0.207 0-0.375 0.168-0.375 0.375s0.168 0.375 0.375 0.375z"></path>
<path d="M17.838 20.962h-1.5v-1.125c0-0.207-0.168-0.375-0.375-0.375s-0.375 0.168-0.375 0.375v1.5c0 0.207 0.168 0.375 0.375 0.375h1.875c0.207 0 0.375-0.168 0.375-0.375s-0.168-0.375-0.375-0.375z"></path>
<path d="M19.713 20.962h-0.375c-0.207 0-0.375 0.168-0.375 0.375s0.168 0.375 0.375 0.375h0.375c0.207 0 0.375-0.168 0.375-0.375s-0.168-0.375-0.375-0.375z"></path>
<path d="M8.344 18.693c0.197 0.065 0.409-0.041 0.474-0.237l0.375-1.125c0.066-0.197-0.041-0.409-0.238-0.475s-0.409 0.041-0.475 0.238l-0.375 1.125c-0.031 0.095-0.024 0.198 0.021 0.287s0.123 0.157 0.218 0.188z"></path>
</symbol>
<symbol id="icon-facebook" viewBox="0 0 24 24">
<path d="M10.757 2.757c1.125-1.125 2.651-1.757 4.243-1.757h3c0.552 0 1 0.448 1 1v4c0 0.552-0.448 1-1 1h-3v2h3c0.308 0 0.599 0.142 0.788 0.385s0.257 0.559 0.182 0.858l-1 4c-0.111 0.445-0.511 0.758-0.97 0.758h-2v7c0 0.552-0.448 1-1 1h-4c-0.552 0-1-0.448-1-1v-7h-2c-0.552 0-1-0.448-1-1v-4c0-0.552 0.448-1 1-1h2v-2c0-1.591 0.632-3.117 1.757-4.243zM15 3c-1.061 0-2.078 0.421-2.828 1.172s-1.172 1.768-1.172 2.828v3c0 0.552-0.448 1-1 1h-2v2h2c0.552 0 1 0.448 1 1v7h2v-7c0-0.552 0.448-1 1-1h2.219l0.5-2h-2.719c-0.552 0-1-0.448-1-1v-3c0-0.53 0.211-1.039 0.586-1.414s0.884-0.586 1.414-0.586h2v-2h-2z"></path>
</symbol>
<symbol id="icon-instagram" viewBox="0 0 24 24">
<path d="M7 3c-2.209 0-4 1.791-4 4v10c0 2.209 1.791 4 4 4h10c2.209 0 4-1.791 4-4v-10c0-2.209-1.791-4-4-4h-10zM1 7c0-3.314 2.686-6 6-6h10c3.314 0 6 2.686 6 6v10c0 3.314-2.686 6-6 6h-10c-3.314 0-6-2.686-6-6v-10z"></path>
<path d="M12.483 8.989c-0.624-0.093-1.262 0.014-1.822 0.305s-1.014 0.75-1.298 1.314c-0.284 0.564-0.382 1.202-0.282 1.825s0.394 1.198 0.841 1.645c0.446 0.446 1.022 0.74 1.645 0.841s1.262 0.001 1.825-0.282c0.564-0.284 1.023-0.738 1.314-1.298s0.397-1.198 0.305-1.822c-0.094-0.637-0.391-1.226-0.846-1.681s-1.045-0.752-1.681-0.846zM9.74 7.519c0.933-0.484 1.996-0.662 3.036-0.508 1.061 0.157 2.044 0.652 2.802 1.41s1.253 1.741 1.41 2.802c0.154 1.040-0.023 2.103-0.508 3.036s-1.251 1.691-2.19 2.163c-0.939 0.473-2.004 0.637-3.042 0.47s-1.998-0.657-2.741-1.401c-0.744-0.744-1.234-1.703-1.401-2.741s-0.003-2.103 0.47-3.042c0.473-0.939 1.23-1.706 2.163-2.19z"></path>
<path d="M16.5 6.5c0-0.552 0.448-1 1-1h0.010c0.552 0 1 0.448 1 1s-0.448 1-1 1h-0.010c-0.552 0-1-0.448-1-1z"></path>
</symbol>
<symbol id="icon-mail" viewBox="0 0 24 24">
<path d="M4 5c-0.548 0-1 0.452-1 1v12c0 0.548 0.452 1 1 1h16c0.548 0 1-0.452 1-1v-12c0-0.548-0.452-1-1-1h-16zM1 6c0-1.652 1.348-3 3-3h16c1.652 0 3 1.348 3 3v12c0 1.652-1.348 3-3 3h-16c-1.652 0-3-1.348-3-3v-12z"></path>
<path d="M1.181 5.427c0.317-0.452 0.94-0.562 1.393-0.246l9.427 6.599 9.426-6.599c0.453-0.317 1.076-0.207 1.393 0.246s0.207 1.076-0.246 1.393l-10 7c-0.344 0.241-0.803 0.241-1.147 0l-10-7c-0.452-0.317-0.562-0.94-0.246-1.393z"></path>
</symbol>
<symbol id="icon-map-pin" viewBox="0 0 24 24">
<path d="M12 2c-2.122 0-4.157 0.843-5.657 2.343s-2.343 3.535-2.343 5.657c0 3.098 2.016 6.104 4.226 8.437 1.085 1.145 2.173 2.082 2.991 2.733 0.304 0.243 0.57 0.444 0.783 0.602 0.213-0.157 0.479-0.359 0.783-0.602 0.818-0.651 1.906-1.589 2.991-2.733 2.21-2.333 4.226-5.339 4.226-8.437 0-2.122-0.843-4.157-2.343-5.657s-3.535-2.343-5.657-2.343zM12 23c-0.555 0.832-0.555 0.832-0.555 0.832l-0.003-0.002-0.007-0.005-0.023-0.015c-0.020-0.013-0.047-0.032-0.083-0.057-0.071-0.049-0.173-0.121-0.302-0.214-0.257-0.186-0.621-0.457-1.057-0.804-0.869-0.692-2.031-1.693-3.197-2.923-2.29-2.417-4.774-5.911-4.774-9.813 0-2.652 1.054-5.196 2.929-7.071s4.419-2.929 7.071-2.929c2.652 0 5.196 1.054 7.071 2.929s2.929 4.419 2.929 7.071c0 3.902-2.484 7.396-4.774 9.813-1.165 1.23-2.327 2.23-3.197 2.923-0.436 0.347-0.8 0.618-1.057 0.804-0.129 0.093-0.231 0.165-0.302 0.214-0.036 0.025-0.063 0.044-0.083 0.057l-0.023 0.015-0.007 0.005-0.002 0.001c-0 0-0.001 0.001-0.556-0.831zM12 23l0.555 0.832c-0.336 0.224-0.774 0.224-1.11-0l0.555-0.832z"></path>
<path d="M17 10c0-2.761-2.239-5-5-5s-5 2.239-5 5c0 2.761 2.239 5 5 5s5-2.239 5-5zM15 10c0 1.657-1.343 3-3 3s-3-1.343-3-3c0-1.657 1.343-3 3-3s3 1.343 3 3z"></path>
</symbol>
<symbol id="icon-menu" viewBox="0 0 24 24">
<path d="M2 12c0-0.552 0.448-1 1-1h18c0.552 0 1 0.448 1 1s-0.448 1-1 1h-18c-0.552 0-1-0.448-1-1z"></path>
<path d="M2 6c0-0.552 0.448-1 1-1h18c0.552 0 1 0.448 1 1s-0.448 1-1 1h-18c-0.552 0-1-0.448-1-1z"></path>
<path d="M2 18c0-0.552 0.448-1 1-1h18c0.552 0 1 0.448 1 1s-0.448 1-1 1h-18c-0.552 0-1-0.448-1-1z"></path>
</symbol>
<symbol id="icon-trim" viewBox="0 0 24 24">
<path d="M12 13.497c0.455 0 0.865-0.274 1.039-0.694s0.078-0.904-0.244-1.226c-0.445-0.425-1.146-0.425-1.591 0-0.321 0.322-0.418 0.805-0.244 1.226s0.584 0.694 1.039 0.695zM11.735 12.107c0.146-0.146 0.384-0.146 0.53 0s0.146 0.384 0 0.53c-0.148 0.142-0.382 0.142-0.53 0-0.146-0.146-0.146-0.384 0-0.53z"></path>
<path d="M16.5 8.247c0.099 0 0.195-0.040 0.265-0.11l3.375-3.375c0.142-0.147 0.14-0.381-0.005-0.526s-0.379-0.147-0.526-0.005l-3.375 3.375c-0.107 0.107-0.139 0.269-0.081 0.409s0.195 0.231 0.346 0.231z"></path>
<path d="M14.625 10.122c0.099 0 0.195-0.040 0.265-0.11l0.75-0.75c0.142-0.147 0.14-0.381-0.005-0.526s-0.379-0.147-0.526-0.005l-0.75 0.75c-0.107 0.107-0.139 0.269-0.081 0.409s0.195 0.231 0.346 0.231z"></path>
<path d="M4.875 18.747c-0.828 0-1.5 0.672-1.5 1.5s0.672 1.5 1.5 1.5 1.5-0.671 1.5-1.5c0-0.828-0.672-1.5-1.5-1.5zM4.875 20.997c-0.414 0-0.75-0.336-0.75-0.75s0.336-0.75 0.75-0.75 0.75 0.336 0.75 0.75c0 0.414-0.336 0.75-0.75 0.75z"></path>
<path d="M19.139 21.747c0.828 0 1.5-0.671 1.5-1.5s-0.672-1.5-1.5-1.5c-0.829 0-1.5 0.672-1.5 1.5s0.671 1.5 1.5 1.5zM19.139 19.497c0.414 0 0.75 0.336 0.75 0.75s-0.336 0.75-0.75 0.75-0.75-0.336-0.75-0.75c0-0.414 0.336-0.75 0.75-0.75z"></path>
<path d="M22.875 13.872c-0.828 0-1.5-0.671-1.5-1.5 0-0.207-0.168-0.375-0.375-0.375s-0.375 0.168-0.375 0.375c0 0.829-0.672 1.5-1.5 1.5-0.207 0-0.375 0.168-0.375 0.375s0.168 0.375 0.375 0.375c0.828 0 1.5 0.672 1.5 1.5 0 0.207 0.168 0.375 0.375 0.375s0.375-0.168 0.375-0.375c0-0.828 0.672-1.5 1.5-1.5 0.207 0 0.375-0.168 0.375-0.375s-0.168-0.375-0.375-0.375zM21 14.881c-0.167-0.252-0.382-0.467-0.634-0.634 0.251-0.167 0.467-0.382 0.634-0.634 0.167 0.251 0.382 0.467 0.634 0.634-0.251 0.167-0.467 0.382-0.634 0.634z"></path>
<path d="M1.125 10.122c0.828 0 1.5 0.672 1.5 1.5 0 0.207 0.168 0.375 0.375 0.375s0.375-0.168 0.375-0.375c0-0.828 0.672-1.5 1.5-1.5 0.207 0 0.375-0.168 0.375-0.375s-0.168-0.375-0.375-0.375c-0.828 0-1.5-0.671-1.5-1.5 0-0.207-0.168-0.375-0.375-0.375s-0.375 0.168-0.375 0.375c0 0.829-0.672 1.5-1.5 1.5-0.207 0-0.375 0.168-0.375 0.375s0.168 0.375 0.375 0.375zM3 9.113c0.167 0.251 0.382 0.467 0.634 0.634-0.251 0.167-0.467 0.382-0.634 0.634-0.167-0.252-0.382-0.467-0.634-0.634 0.251-0.167 0.467-0.382 0.634-0.634z"></path>
<path d="M9.825 13.642l-3.825 3.824c-0.357-0.146-0.739-0.22-1.125-0.22-1.657 0-3 1.343-3 3s1.343 3 3 3 3-1.343 3-3c-0-0.179-0.017-0.358-0.050-0.535l4.182-4.088 4.182 4.088c-0.033 0.176-0.050 0.355-0.050 0.535 0 1.657 1.343 3 3 3s3-1.343 3-3c0-1.657-1.343-3-3-3-0.386-0.001-0.768 0.074-1.125 0.22l-3.82-3.82 7.099-8.166c1.652-2.065 0.036-4.543 0.019-4.567-0.061-0.091-0.159-0.151-0.268-0.164s-0.219 0.023-0.3 0.097l-8.733 8.112-8.734-8.112c-0.081-0.075-0.19-0.11-0.3-0.097s-0.207 0.073-0.268 0.164c-0.017 0.025-1.633 2.502 0.029 4.579l7.088 8.149zM7.152 19.322c-0.096 0.094-0.134 0.232-0.101 0.362 0.241 0.932-0.137 1.914-0.941 2.443s-1.855 0.489-2.616-0.101c-0.761-0.59-1.062-1.598-0.75-2.508s1.169-1.521 2.131-1.52c0.36-0 0.714 0.086 1.033 0.253 0.145 0.075 0.322 0.048 0.438-0.068l3.971-3.97c0.222 0.209 0.479 0.379 0.758 0.501l0.396 0.387-4.319 4.223zM18.107 18.249c0.318-0.167 0.673-0.253 1.032-0.253 0.97-0.006 1.836 0.607 2.153 1.524s0.015 1.934-0.752 2.528c-0.766 0.595-1.826 0.635-2.636 0.1s-1.188-1.526-0.941-2.464c0.034-0.13-0.005-0.268-0.101-0.362l-4.548-4.446c0.517-0.079 0.996-0.315 1.374-0.675l3.979 3.979c0.115 0.116 0.292 0.144 0.438 0.069zM20.902 1.725c0.316 0.672 0.772 2.079-0.184 3.276l-7.482 8.606c-0.679 0.685-1.785 0.689-2.47 0.010s-0.689-1.785-0.010-2.47l10.146-9.422zM3.117 1.722l8.342 7.748-1.224 1.137c-0.413 0.401-0.678 0.929-0.75 1.5l-6.171-7.094c-0.974-1.217-0.516-2.62-0.196-3.291z"></path>
</symbol>
<symbol id="icon-whatsapp" viewBox="0 0 24 24">
<path d="M16.6 14c-0.2-0.1-1.5-0.7-1.7-0.8s-0.4-0.1-0.6 0.1c-0.2 0.2-0.6 0.8-0.8 1-0.1 0.2-0.3 0.2-0.5 0.1-0.7-0.3-1.4-0.7-2-1.2-0.5-0.5-1-1.1-1.4-1.7-0.1-0.2 0-0.4 0.1-0.5s0.2-0.3 0.4-0.4c0.1-0.1 0.2-0.3 0.2-0.4 0.1-0.1 0.1-0.3 0-0.4s-0.6-1.3-0.8-1.8c-0.1-0.7-0.3-0.7-0.5-0.7-0.1 0-0.3 0-0.5 0s-0.5 0.2-0.6 0.3c-0.6 0.6-0.9 1.3-0.9 2.1 0.1 0.9 0.4 1.8 1 2.6 1.1 1.6 2.5 2.9 4.2 3.7 0.5 0.2 0.9 0.4 1.4 0.5 0.5 0.2 1 0.2 1.6 0.1 0.7-0.1 1.3-0.6 1.7-1.2 0.2-0.4 0.2-0.8 0.1-1.2 0 0-0.2-0.1-0.4-0.2zM19.1 4.9c-3.9-3.9-10.2-3.9-14.1 0-3.2 3.2-3.8 8.1-1.6 12l-1.4 5.1 5.3-1.4c1.5 0.8 3.1 1.2 4.7 1.2 5.5 0 9.9-4.4 9.9-9.9 0.1-2.6-1-5.1-2.8-7zM16.4 18.9c-1.3 0.8-2.8 1.3-4.4 1.3-1.5 0-2.9-0.4-4.2-1.1l-0.3-0.2-3.1 0.8 0.8-3-0.2-0.3c-2.4-4-1.2-9 2.7-11.5s8.9-1.2 11.3 2.6c2.4 3.9 1.3 9-2.6 11.4z"></path>
</symbol>
<symbol id="icon-woman-hair" viewBox="0 0 24 24">
<path d="M5.625 7.125c0.828 0 1.5-0.672 1.5-1.5s-0.672-1.5-1.5-1.5c-0.829 0-1.5 0.672-1.5 1.5s0.671 1.5 1.5 1.5zM5.625 4.875c0.414 0 0.75 0.336 0.75 0.75s-0.336 0.75-0.75 0.75c-0.414 0-0.75-0.336-0.75-0.75s0.336-0.75 0.75-0.75z"></path>
<path d="M5.25 10.875c0-0.828-0.672-1.5-1.5-1.5s-1.5 0.672-1.5 1.5 0.671 1.5 1.5 1.5c0.828 0 1.5-0.672 1.5-1.5zM3 10.875c0-0.414 0.336-0.75 0.75-0.75s0.75 0.336 0.75 0.75c0 0.414-0.336 0.75-0.75 0.75s-0.75-0.336-0.75-0.75z"></path>
<path d="M4.5 14.625c-0.829 0-1.5 0.672-1.5 1.5s0.671 1.5 1.5 1.5c0.828 0 1.5-0.672 1.5-1.5s-0.672-1.5-1.5-1.5zM4.5 16.875c-0.414 0-0.75-0.336-0.75-0.75s0.336-0.75 0.75-0.75c0.414 0 0.75 0.336 0.75 0.75s-0.336 0.75-0.75 0.75z"></path>
<path d="M18.375 7.125c0.828 0 1.5-0.672 1.5-1.5s-0.672-1.5-1.5-1.5c-0.829 0-1.5 0.672-1.5 1.5s0.671 1.5 1.5 1.5zM18.375 4.875c0.414 0 0.75 0.336 0.75 0.75s-0.336 0.75-0.75 0.75c-0.414 0-0.75-0.336-0.75-0.75s0.336-0.75 0.75-0.75z"></path>
<path d="M18.75 10.875c0 0.828 0.671 1.5 1.5 1.5s1.5-0.672 1.5-1.5-0.672-1.5-1.5-1.5c-0.829 0-1.5 0.672-1.5 1.5zM21 10.875c0 0.414-0.336 0.75-0.75 0.75s-0.75-0.336-0.75-0.75c0-0.414 0.336-0.75 0.75-0.75s0.75 0.336 0.75 0.75z"></path>
<path d="M21.256 13.698c1.358-0.482 2.18-1.862 1.958-3.286s-1.427-2.487-2.867-2.532c1.227-1.073 1.372-2.93 0.325-4.18s-2.9-1.434-4.172-0.414v-2.161c0-0.207-0.168-0.375-0.375-0.375h-8.25c-0.207 0-0.375 0.168-0.375 0.375v2.167c-1.27-1.023-3.125-0.842-4.173 0.408s-0.903 3.108 0.326 4.18c-1.44 0.045-2.644 1.108-2.867 2.532s0.6 2.804 1.958 3.286c-1.095 0.792-1.526 2.218-1.050 3.483s1.738 2.056 3.083 1.931c1.345-0.125 2.441-1.135 2.675-2.466 0.425 0.593 0.949 1.108 1.548 1.524v2.080h-3.375c-1.035 0.001-1.874 0.84-1.875 1.875v0.75c0 0.207 0.168 0.375 0.375 0.375h15.75c0.207 0 0.375-0.168 0.375-0.375v-0.75c-0.001-1.035-0.84-1.874-1.875-1.875h-3.375v-2.080c0.599-0.416 1.123-0.931 1.548-1.524 0.231 1.334 1.328 2.348 2.676 2.474s2.614-0.666 3.089-1.934c0.475-1.268 0.042-2.697-1.057-3.488zM22.5 10.875c0 1.243-1.008 2.25-2.25 2.25s-2.25-1.007-2.25-2.25c0-1.242 1.007-2.25 2.25-2.25 1.242 0.001 2.249 1.008 2.25 2.25zM17.603 9.466c-0.12-0.378-0.269-0.746-0.445-1.101 0.353 0.157 0.733 0.244 1.119 0.255-0.274 0.239-0.503 0.525-0.675 0.846zM18.375 3.375c1.195-0.001 2.183 0.932 2.249 2.125s-0.812 2.23-1.999 2.361c-1.188 0.131-2.271-0.689-2.467-1.868 0.192-0.015 0.341-0.175 0.342-0.368v-1.237c0.413-0.634 1.119-1.015 1.875-1.013zM15.75 5.25h-1.875v-3.75h1.875v3.75zM13.125 1.5v3.75h-2.25v-3.75h2.25zM6.397 9.466c-0.172-0.32-0.401-0.607-0.675-0.846 0.386-0.012 0.766-0.098 1.119-0.255-0.176 0.355-0.324 0.723-0.444 1.101zM8.25 1.5h1.875v3.75h-1.875v-3.75zM3.375 5.625c-0.002-0.994 0.649-1.87 1.601-2.156s1.978 0.088 2.524 0.919v1.237c0.001 0.193 0.15 0.353 0.342 0.368-0.198 1.148-1.241 1.955-2.402 1.859s-2.057-1.062-2.065-2.227zM1.5 10.875c0-1.242 1.007-2.25 2.25-2.25s2.25 1.008 2.25 2.25c0 1.243-1.008 2.25-2.25 2.25-1.242-0.001-2.249-1.008-2.25-2.25zM4.5 18.375c-1.243 0-2.25-1.007-2.25-2.25s1.007-2.25 2.25-2.25c1.242 0 2.25 1.007 2.25 2.25-0.001 1.242-1.008 2.249-2.25 2.25zM5.506 13.303c0.198-0.143 0.377-0.309 0.535-0.495 0.027 0.278 0.067 0.552 0.12 0.822-0.204-0.135-0.424-0.245-0.655-0.327zM14.424 17.653c-0.108 0.069-0.174 0.188-0.174 0.317v2.656c0 0.207 0.168 0.375 0.375 0.375h3.75c0.621 0 1.125 0.504 1.125 1.125v0.375h-15v-0.375c0-0.621 0.503-1.125 1.125-1.125h3.75c0.207 0 0.375-0.168 0.375-0.375v-2.657c0-0.128-0.066-0.248-0.174-0.317-1.743-1.106-2.826-3.271-2.826-5.651-0.038-1.922 0.727-3.773 2.11-5.109-0.128 0.823-0.207 1.652-0.235 2.484 0 0.207 0.168 0.375 0.375 0.375s0.375-0.168 0.375-0.375c0.051-1.042 0.163-2.079 0.338-3.108 0.167-0.099 0.34-0.189 0.517-0.267h0.207c-0.177 1.117-0.281 2.245-0.312 3.375 0 0.207 0.168 0.375 0.375 0.375s0.375-0.168 0.375-0.375c0.034-1.131 0.142-2.258 0.321-3.375h0.429v3.375c0 0.207 0.168 0.375 0.375 0.375s0.375-0.168 0.375-0.375v-3.375h0.429c0.179 1.117 0.286 2.244 0.321 3.375 0 0.207 0.168 0.375 0.375 0.375s0.375-0.168 0.375-0.375c-0.031-1.13-0.135-2.258-0.312-3.375h0.207c0.178 0.078 0.351 0.168 0.519 0.267 0.174 1.028 0.286 2.066 0.337 3.108 0 0.207 0.168 0.375 0.375 0.375s0.375-0.168 0.375-0.375c-0.029-0.832-0.108-1.661-0.236-2.484 1.383 1.335 2.148 3.186 2.111 5.109 0 2.379-1.083 4.545-2.826 5.651v0.002zM17.959 12.808c0.158 0.186 0.338 0.352 0.535 0.495-0.231 0.081-0.451 0.191-0.655 0.327 0.053-0.269 0.093-0.543 0.12-0.822zM19.5 18.375c-1.243 0-2.25-1.007-2.25-2.25s1.007-2.25 2.25-2.25c1.242 0 2.25 1.007 2.25 2.25-0.001 1.242-1.008 2.249-2.25 2.25z"></path>
<path d="M19.5 14.625c-0.829 0-1.5 0.672-1.5 1.5s0.671 1.5 1.5 1.5c0.828 0 1.5-0.672 1.5-1.5s-0.672-1.5-1.5-1.5zM19.5 16.875c-0.414 0-0.75-0.336-0.75-0.75s0.336-0.75 0.75-0.75c0.414 0 0.75 0.336 0.75 0.75s-0.336 0.75-0.75 0.75z"></path>
<path d="M11.14 11.36c-0.146-0.146-0.384-0.146-0.53 0-0.27 0.293-0.65 0.46-1.048 0.46s-0.778-0.167-1.048-0.46c-0.147-0.142-0.381-0.139-0.526 0.006s-0.146 0.379-0.003 0.526c0.433 0.429 1.013 0.678 1.622 0.696 0.585-0.012 1.139-0.264 1.533-0.696 0.070-0.070 0.11-0.166 0.11-0.266s-0.040-0.195-0.11-0.266z"></path>
<path d="M16.015 11.36c-0.146-0.146-0.384-0.146-0.53 0-0.27 0.293-0.65 0.46-1.048 0.46s-0.778-0.167-1.048-0.46c-0.147-0.142-0.381-0.139-0.526 0.006s-0.146 0.379-0.003 0.526c0.433 0.429 1.013 0.678 1.622 0.696 0.585-0.012 1.139-0.264 1.533-0.696 0.070-0.070 0.11-0.166 0.11-0.266s-0.040-0.195-0.11-0.266z"></path>
<path d="M13.235 14.735c-1.191 1.19-2.341 0.126-2.47 0-0.147-0.142-0.381-0.139-0.526 0.005s-0.146 0.379-0.004 0.526c0.484 0.48 1.133 0.759 1.815 0.78 0.654-0.014 1.274-0.296 1.715-0.78 0.142-0.147 0.14-0.381-0.005-0.526s-0.379-0.147-0.526-0.005v-0.001z"></path>
</symbol>
<symbol id="icon-youtube" viewBox="0 0 24 24">
<path d="M12 3c0 0 0 0 0 1v1l-0.075 0c-0.050 0-0.124 0-0.219 0.001-0.19 0.001-0.463 0.003-0.797 0.006-0.668 0.007-1.575 0.021-2.534 0.050-0.961 0.029-1.966 0.071-2.833 0.134-0.888 0.065-1.548 0.146-1.877 0.233-0.299 0.086-0.57 0.248-0.786 0.471-0.211 0.218-0.363 0.486-0.442 0.778-0.3 1.674-0.446 3.371-0.438 5.071l0 0.011c-0.011 1.707 0.135 3.412 0.434 5.092 0.087 0.278 0.24 0.53 0.447 0.735 0.217 0.215 0.485 0.37 0.78 0.451 0.327 0.087 0.989 0.169 1.881 0.234 0.866 0.063 1.872 0.106 2.833 0.134 0.959 0.029 1.866 0.043 2.534 0.050 0.334 0.003 0.607 0.005 0.797 0.006 0.095 0 0.169 0.001 0.219 0.001h0.151c0.050-0 0.124-0 0.219-0.001 0.19-0.001 0.463-0.003 0.797-0.006 0.668-0.007 1.575-0.021 2.534-0.050 0.961-0.029 1.966-0.071 2.833-0.134 0.888-0.065 1.548-0.146 1.877-0.233 0.299-0.086 0.57-0.248 0.786-0.471 0.211-0.218 0.363-0.486 0.441-0.778 0.297-1.661 0.444-3.345 0.438-5.033v-0.010c0.011-1.713-0.136-3.424-0.438-5.11-0.078-0.293-0.23-0.56-0.441-0.778-0.214-0.221-0.481-0.382-0.776-0.468-0.34-0.080-1.002-0.154-1.881-0.212-0.868-0.058-1.875-0.097-2.836-0.123-0.96-0.026-1.868-0.039-2.536-0.046-0.334-0.003-0.607-0.005-0.797-0.006l-0.295-0.001v-1c0-1 0-1-0-1l0.080 0c0.051 0 0.127 0 0.224 0.001 0.193 0.001 0.47 0.002 0.808 0.006 0.676 0.007 1.595 0.020 2.57 0.046 0.974 0.026 2.010 0.066 2.915 0.127 0.88 0.059 1.714 0.141 2.24 0.269 0.012 0.003 0.023 0.006 0.035 0.009 0.64 0.181 1.221 0.528 1.684 1.005s0.792 1.069 0.954 1.714c0.005 0.022 0.010 0.043 0.014 0.065 0.328 1.818 0.487 3.662 0.476 5.509 0.006 1.819-0.153 3.636-0.476 5.426-0.004 0.022-0.009 0.044-0.014 0.065-0.162 0.645-0.49 1.237-0.954 1.714s-1.044 0.824-1.684 1.005l-0.014 0.004c-0.534 0.143-1.376 0.233-2.255 0.297-0.907 0.066-1.944 0.11-2.919 0.139-0.976 0.029-1.896 0.043-2.572 0.051-0.338 0.004-0.616 0.005-0.809 0.006-0.097 0-0.172 0.001-0.224 0.001l-0.079 0-0.080-0c-0.052-0-0.127-0-0.224-0.001-0.193-0.001-0.471-0.003-0.809-0.006-0.676-0.007-1.596-0.022-2.572-0.051-0.974-0.029-2.011-0.073-2.919-0.139-0.879-0.064-1.721-0.154-2.255-0.297l-0.006-0.001c-0.627-0.172-1.199-0.502-1.661-0.959s-0.798-1.026-0.976-1.651c-0.009-0.032-0.017-0.064-0.022-0.096-0.328-1.818-0.487-3.661-0.476-5.508-0.009-1.833 0.151-3.663 0.476-5.467 0.004-0.022 0.009-0.044 0.014-0.065 0.162-0.645 0.49-1.237 0.954-1.714s1.044-0.824 1.684-1.005l0.014-0.004c0.534-0.143 1.376-0.233 2.255-0.297 0.907-0.066 1.945-0.11 2.919-0.139 0.976-0.029 1.896-0.043 2.572-0.051 0.338-0.004 0.616-0.005 0.809-0.006 0.097-0 0.172-0.001 0.224-0.001l0.080-0z"></path>
<path d="M9.247 7.616c0.308-0.179 0.688-0.181 0.997-0.005l5.75 3.27c0.313 0.178 0.506 0.51 0.506 0.869s-0.193 0.692-0.506 0.869l-5.75 3.27c-0.309 0.176-0.689 0.174-0.997-0.005s-0.497-0.508-0.497-0.864v-6.54c0-0.356 0.189-0.685 0.497-0.864zM10.75 10.199v3.102l2.727-1.551-2.727-1.551z"></path>
</symbol>
<symbol id="icon-office" viewBox="0 0 25 24">
<path d="M0 24h12v-24h-12v24zM7.5 3h3v3h-3v-3zM7.5 9h3v3h-3v-3zM7.5 15h3v3h-3v-3zM1.5 3h3v3h-3v-3zM1.5 9h3v3h-3v-3zM1.5 15h3v3h-3v-3zM13.5 7.5h10.5v1.5h-10.5zM13.5 24h3v-6h4.5v6h3v-13.5h-10.5z"></path>
</symbol>
<symbol id="icon-clipboard" viewBox="0 0 24 24">
<path d="M21.75 3h-6.75c0-1.657-1.343-3-3-3s-3 1.343-3 3h-6.75c-0.414 0-0.75 0.336-0.75 0.75v19.5c0 0.414 0.336 0.75 0.75 0.75h19.5c0.414 0 0.75-0.336 0.75-0.75v-19.5c0-0.414-0.336-0.75-0.75-0.75zM12 1.5c0.828 0 1.5 0.672 1.5 1.5s-0.672 1.5-1.5 1.5c-0.828 0-1.5-0.672-1.5-1.5s0.672-1.5 1.5-1.5zM21 22.5h-18v-18h3v2.25c0 0.414 0.336 0.75 0.75 0.75h10.5c0.414 0 0.75-0.336 0.75-0.75v-2.25h3v18z"></path>
<path d="M10.5 20.121l-4.811-5.561 1.371-1.371 3.439 2.689 6.439-5.689 1.371 1.371z"></path>
</symbol>
<symbol id="icon-man-woman" viewBox="0 0 24 24">
<path d="M6 2.25c0 1.243-1.007 2.25-2.25 2.25s-2.25-1.007-2.25-2.25c0-1.243 1.007-2.25 2.25-2.25s2.25 1.007 2.25 2.25z"></path>
<path d="M19.5 2.25c0 1.243-1.007 2.25-2.25 2.25s-2.25-1.007-2.25-2.25c0-1.243 1.007-2.25 2.25-2.25s2.25 1.007 2.25 2.25z"></path>
<path d="M6 6h-4.5c-0.828 0-1.5 0.672-1.5 1.5v7.5h1.5v9h1.875v-9h0.75v9h1.875v-9h1.5v-7.5c0-0.828-0.672-1.5-1.5-1.5z"></path>
<path d="M22.852 12l1.148-0.832-3.124-4.831c-0.139-0.21-0.374-0.337-0.626-0.337h-6c-0.252 0-0.487 0.127-0.626 0.337l-3.124 4.831 1.148 0.832 2.593-3.366 0.901 2.103-3.143 5.762h2.875l0.5 7.5h1.5v-7.5h0.75v7.5h1.5l0.5-7.5h2.875l-3.143-5.762 0.901-2.103 2.593 3.366z"></path>
</symbol>
</defs>
</svg>
